<?xml version="1.0" standalone="no"?>
<!DOCTYPE svg PUBLIC "-//W3C//DTD SVG 20010904//EN"
 "http://www.w3.org/TR/2001/REC-SVG-20010904/DTD/svg10.dtd">
<svg version="1.0" xmlns="http://www.w3.org/2000/svg"
 width="100.000000pt" height="100.000000pt" viewBox="0 0 100.000000 100.000000"
 preserveAspectRatio="xMidYMid meet">
<metadata>
Created by potrace 1.14, written by Peter Selinger 2001-2017
</metadata>
<g transform="translate(0.000000,100.000000) scale(0.100000,-0.100000)"
fill="#000000" stroke="none">
<path d="M0 931 l0 -70 43 -3 42 -3 3 -47 3 -48 -45 0 -46 0 0 -380 0 -380
500 0 500 0 -2 383 -3 382 -22 3 c-25 4 -28 22 -17 106 5 36 11 46 25 46 14 0
19 7 19 30 0 23 -4 30 -20 30 -11 0 -20 5 -20 10 0 14 -207 13 -212 0 -2 -6
-27 -12 -56 -14 -40 -3 -52 -1 -52 10 0 12 -53 14 -320 14 l-320 0 0 -69z
m746 -15 c1 0 4 -18 7 -39 l6 -37 -30 29 c-16 16 -38 33 -49 36 -38 12 -21 27
23 20 23 -4 42 -8 43 -9z m-256 -598 c0 -4 -18 -8 -40 -8 -22 0 -40 5 -40 10
0 6 17 10 40 8 22 -1 40 -6 40 -10z m28 -33 c-7 -7 -97 -9 -105 -2 -3 4 20 7
52 7 32 0 56 -2 53 -5z"/>
</g>
</svg>
